<?xml version="1.0" standalone="no"?>
<!DOCTYPE svg PUBLIC "-//W3C//DTD SVG 20010904//EN"
 "http://www.w3.org/TR/2001/REC-SVG-20010904/DTD/svg10.dtd">
<svg version="1.0" xmlns="http://www.w3.org/2000/svg"
 width="1440.000000pt" height="1440.000000pt" viewBox="0 0 1440.000000 1440.000000"
 preserveAspectRatio="xMidYMid meet">
<metadata>
Created by potrace 1.14, written by Peter Selinger 2001-2017
</metadata>
<g transform="translate(0.000000,1440.000000) scale(0.100000,-0.100000)"
fill="#000000" stroke="none">
<path d="M6930 10843 c-11 -16 -42 -73 -68 -128 -69 -144 -67 -142 -86 -126
-10 8 -16 29 -16 55 0 75 -38 186 -63 186 -15 0 -51 -52 -72 -106 -25 -64 -62
-214 -91 -369 -23 -128 -25 -156 -20 -317 5 -175 4 -179 -23 -260 -16 -46 -47
-121 -71 -167 -76 -153 -98 -255 -75 -362 17 -86 30 -101 139 -167 89 -54 151
-76 329 -117 105 -24 119 -30 128 -52 23 -62 2 -112 -95 -223 -36 -41 -81
-104 -101 -140 -20 -36 -58 -91 -85 -123 -96 -113 -207 -312 -319 -575 -75
-175 -99 -251 -155 -501 -27 -121 -52 -212 -62 -223 -10 -10 -30 -18 -45 -18
-40 0 -128 41 -191 89 -65 48 -178 102 -274 130 -38 11 -114 36 -169 56 -84
29 -108 34 -150 29 -135 -17 -214 -76 -276 -208 -38 -79 -44 -100 -44 -161 -3
-284 -4 -295 -22 -288 -33 12 -53 36 -67 83 -17 57 -88 186 -122 220 -38 39
-48 17 -48 -107 -1 -94 -3 -108 -18 -111 -11 -2 -66 41 -147 116 -90 83 -152
131 -203 157 -40 21 -97 53 -126 72 -84 53 -121 39 -85 -31 10 -19 56 -79 103
-131 81 -92 183 -242 174 -256 -2 -4 -21 2 -41 12 -21 10 -42 19 -48 19 -6 0
-90 25 -186 55 -197 62 -250 68 -267 31 -16 -35 5 -62 196 -252 89 -90 164
-173 167 -187 11 -43 1 -78 -26 -94 -23 -14 -46 -15 -174 -7 l-148 9 -10 30
c-13 45 -66 174 -92 225 -27 54 -58 225 -80 440 -24 248 -21 327 29 675 8 55
22 163 32 240 20 167 28 208 88 475 45 202 55 273 37 284 -5 4 -22 -15 -39
-42 -70 -114 -184 -460 -281 -857 -69 -281 -94 -416 -106 -575 -4 -47 -14
-116 -22 -155 -31 -133 -14 -619 28 -835 36 -184 209 -621 315 -797 253 -420
409 -612 689 -846 179 -150 304 -206 611 -272 258 -55 399 -49 634 27 336 108
640 342 764 586 43 85 90 96 133 31 l27 -41 -21 -123 c-33 -192 -70 -253 -260
-428 -61 -56 -72 -90 -55 -180 15 -79 64 -133 242 -263 16 -12 50 -44 77 -72
55 -59 160 -118 393 -223 203 -92 347 -143 451 -163 111 -21 116 -20 135 9 16
24 15 27 -11 68 -16 23 -65 80 -109 126 -74 77 -78 83 -51 78 17 -3 82 -13
145 -22 256 -36 290 -43 352 -74 97 -47 250 -84 313 -76 29 3 61 12 71 20 16
12 17 16 5 39 -8 14 -65 71 -128 127 -62 55 -113 105 -113 110 0 22 161 2 348
-43 101 -24 124 -20 130 21 3 16 -17 42 -75 100 -83 83 -149 131 -278 202
l-80 44 125 3 c69 1 146 -2 173 -8 54 -11 117 -13 141 -4 25 9 20 61 -6 78
-29 18 -234 94 -307 113 -173 46 -415 62 -631 43 -283 -25 -257 -25 -270 0
-14 27 -6 38 70 93 122 90 219 187 251 253 30 60 31 69 26 137 -4 39 -15 107
-26 149 -26 99 -117 297 -191 413 -147 231 -171 338 -106 470 19 39 45 84 58
101 231 306 307 415 405 572 124 199 213 370 258 492 124 336 174 536 211 834
17 140 20 155 85 348 27 81 49 153 49 162 0 8 14 26 31 40 27 23 39 26 107 26
42 0 106 -7 142 -15 280 -61 342 -76 390 -93 30 -11 93 -34 140 -51 104 -38
182 -40 337 -10 123 24 181 49 302 130 234 157 561 466 561 530 0 35 -82 21
-202 -33 -56 -25 -70 -29 -83 -18 -8 7 -15 16 -15 21 0 5 28 41 63 81 100 117
167 211 165 233 -7 51 -102 21 -271 -87 -114 -73 -136 -52 -71 67 34 61 48
100 61 168 5 24 3 27 -24 27 -50 0 -150 -69 -244 -169 -51 -53 -94 -91 -102
-88 -8 3 -17 39 -24 98 -15 127 -36 169 -77 153 -15 -6 -73 -127 -112 -234
-29 -83 -87 -201 -141 -290 -50 -82 -89 -104 -177 -97 -87 6 -206 53 -343 134
-65 39 -139 83 -165 97 -49 29 -67 58 -49 80 6 7 44 17 83 21 40 3 115 18 167
31 213 54 293 123 396 339 34 72 70 155 80 185 10 30 29 80 43 110 178 392
187 418 186 535 -1 63 -7 94 -28 145 -45 109 -65 131 -157 178 l-84 42 -170
10 c-93 5 -298 10 -455 11 -302 1 -322 -1 -421 -52 -59 -30 -165 -153 -206
-238 -20 -42 -85 -177 -146 -301 -60 -124 -122 -261 -139 -305 -46 -126 -135
-253 -200 -286 -26 -13 -75 -24 -137 -30 -53 -5 -102 -12 -110 -14 -7 -3 -78
-10 -158 -15 -175 -13 -207 -6 -230 48 -36 86 13 180 176 342 163 161 293 347
275 394 -13 34 -52 30 -124 -12 -38 -22 -71 -37 -74 -34 -10 9 -6 79 5 109 32
79 58 266 45 317 -3 14 -12 26 -19 26 -25 0 -106 -104 -162 -207 -26 -49 -47
-65 -59 -45 -3 5 -8 78 -11 163 -9 223 -26 268 -75 202z m-1258 -4470 c33 -26
74 -73 153 -178 41 -54 75 -125 75 -157 0 -37 -73 -206 -155 -358 -144 -268
-299 -452 -419 -497 -17 -6 -83 -12 -147 -12 l-115 -1 -155 58 c-184 70 -184
70 -279 143 -86 66 -201 182 -351 353 -150 171 -169 195 -194 251 -12 28 -45
85 -73 129 -29 43 -52 83 -52 88 0 15 78 -33 129 -78 79 -70 142 -109 251
-153 58 -23 121 -54 140 -70 51 -40 218 -127 318 -166 93 -36 265 -66 370 -64
74 1 203 38 238 68 26 23 27 24 20 115 -8 115 21 280 52 300 5 3 12 32 16 63
14 116 29 156 67 175 47 25 70 23 111 -9z"/>
<path d="M944 7419 c-10 -17 13 -36 27 -22 12 12 4 33 -11 33 -5 0 -12 -5 -16
-11z"/>
<path d="M8844 1249 c-10 -17 13 -36 27 -22 12 12 4 33 -11 33 -5 0 -12 -5
-16 -11z"/>
<path d="M8604 949 c-10 -17 13 -36 27 -22 12 12 4 33 -11 33 -5 0 -12 -5 -16
-11z"/>
</g>
</svg>
